HIERARCHY
ROOT Hips
{
  OFFSET 46.0373 92.9577 14.1012
  CHANNELS 6 Xposition Yposition Zposition Zrotation Xrotation Yrotation
  JOINT spine
  {
    OFFSET 0 7.4756 0.429885
    CHANNELS 3 Zrotation Xrotation Yrotation
    JOINT spine1
    {
      OFFSET 0 9.92301 0
      CHANNELS 3 Zrotation Xrotation Yrotation
      JOINT spine2
      {
        OFFSET 0 9.50804 0
        CHANNELS 3 Zrotation Xrotation Yrotation
        JOINT Neck
        {
          OFFSET 0 24.4111 1.16384
          CHANNELS 3 Zrotation Xrotation Yrotation
          JOINT Head
          {
            OFFSET 0 7.37523 0
            CHANNELS 3 Zrotation Xrotation Yrotation
            End Site
            {
              OFFSET 0 17.8522 -5.88741
            }
          }
        }
        JOINT RightShoulder
        {
          OFFSET -4.00356 10.2679 -0.557468
          CHANNELS 3 Zrotation Xrotation Yrotation
          JOINT RightArm
          {
            OFFSET 0 13.4673 0
            CHANNELS 3 Zrotation Xrotation Yrotation
            JOINT RightArmRoll
            {
              OFFSET 0 6.79857 0
              CHANNELS 3 Zrotation Xrotation Yrotation
              JOINT RightForeArm
              {
                OFFSET 0 19.8018 0
                CHANNELS 3 Zrotation Xrotation Yrotation
                JOINT RightForeArmRoll
                {
                  OFFSET 0 7.62905 0
                  CHANNELS 3 Zrotation Xrotation Yrotation
                  JOINT RightHand
                  {
                    OFFSET 0 15.3098 0
                    CHANNELS 3 Zrotation Xrotation Yrotation
                    End Site
                    {
                      OFFSET 0 0 0
                    }
                  }
                }
              }
            }
          }
        }
        JOINT LeftShoulder
        {
          OFFSET 4.00356 10.2679 -0.557468
          CHANNELS 3 Zrotation Xrotation Yrotation
          JOINT LeftArm
          {
            OFFSET 0 13.4673 0
            CHANNELS 3 Zrotation Xrotation Yrotation
            JOINT LeftArmRoll
            {
              OFFSET 0 6.79857 0
              CHANNELS 3 Zrotation Xrotation Yrotation
              JOINT LeftForeArm
              {
                OFFSET 0 19.8018 0
                CHANNELS 3 Zrotation Xrotation Yrotation
                JOINT LeftForeArmRoll
                {
                  OFFSET 0 7.62905 0
                  CHANNELS 3 Zrotation Xrotation Yrotation
                  JOINT LeftHand
                  {
                    OFFSET 0 15.3098 0
                    CHANNELS 3 Zrotation Xrotation Yrotation
                    End Site
                    {
                      OFFSET 0 0 0
                    }
                  }
                }
              }
            }
          }
        }
      }
    }
  }
  JOINT RightUpLeg
  {
    OFFSET -6.62609 -1.21505 -1.01927
    CHANNELS 3 Zrotation Xrotation Yrotation
    JOINT RightUpLegRoll
    {
      OFFSET 0 17.9517 0
      CHANNELS 3 Zrotation Xrotation Yrotation
      JOINT RightLeg
      {
        OFFSET 0 -22.2304 0
        CHANNELS 3 Zrotation Xrotation Yrotation
        JOINT RightLegRoll
        {
          OFFSET 0 22.3032 0
          CHANNELS 3 Zrotation Xrotation Yrotation
          JOINT RightFoot
          {
            OFFSET 0 18.5636 0
            CHANNELS 3 Zrotation Xrotation Yrotation
            JOINT RightToeBase
            {
              OFFSET 0 15.5183 0
              CHANNELS 3 Zrotation Xrotation Yrotation
              End Site
              {
                OFFSET 0.0065776 7.51538 -0.866263
              }
            }
          }
        }
      }
    }
  }
  JOINT LeftUpLeg
  {
    OFFSET 6.62609 -1.21505 -1.01927
    CHANNELS 3 Zrotation Xrotation Yrotation
    JOINT LeftUpLegRoll
    {
      OFFSET 0 17.9518 0
      CHANNELS 3 Zrotation Xrotation Yrotation
      JOINT LeftLeg
      {
        OFFSET 0 22.2303 0
        CHANNELS 3 Zrotation Xrotation Yrotation
        JOINT LeftLegRoll
        {
          OFFSET 0 22.5093 0
          CHANNELS 3 Zrotation Xrotation Yrotation
          JOINT LeftFoot
          {
            OFFSET 0 18.3575 0
            CHANNELS 3 Zrotation Xrotation Yrotation
            JOINT LeftToeBase
            {
              OFFSET 0 15.5183 0
              CHANNELS 3 Zrotation Xrotation Yrotation
              End Site
              {
                OFFSET -0.029478 7.51538 -0.866263
              }
            }
          }
        }
      }
    }
  }
}
MOTION
Frames: 4
Frame Time: 0.00208333
49.9993 94.2314 18.7313 -0.458714 -2.20404 79.492 -0.0776357 -1.48873 0.266288 -0.150869 1.02502 0.540429 -0.157449 2.67006 0.543213 -9.46706 -3.67657 -4.32022 11.3864 3.16576 -4.72704 55.4492 -6.80347 -4.06944 84.0333 70.2312 -1.46596 -3.18319e-006 -5.45104e-006 1.46846e-005 11.9792 65.5562 -10.8153 2.05162e-006 -1.28074e-006 -3.00748 8.0307 -4.95128 0.697728 -72.0233 -5.62695 4.19315 -99.1506 17.7498 -14.4848 -1.54755e-005 -3.58696e-006 1.00106e-005 -7.03775 4.69148 1.10289 1.46876e-005 3.15638e-007 3.00002 -8.03056 -4.95137 -0.69776 -175.545 -1.48419 -2.59146 180 7.01526e-015 178.837 177.334 10.1491 179.836 -1.71648e-006 -7.82038e-006 0.194792 -21.242 70.972 22.381 8.14349 25.2322 -3.49073 -174.557 4.3405 -0.475356 4.54188e-006 -4.6773e-006 -1.08599 -2.81346 -12.5544 0.114813 4.38424e-006 8.37379e-006 -0.128542 17.0549 65.8705 -17.9154 -8.15881 25.6128 2.9606 
50.0077 94.2299 18.7173 -0.459202 -2.19914 79.4099 -0.0718563 -1.48689 0.266105 -0.139342 1.02873 0.53952 -0.145904 2.67377 0.542111 -9.57555 -3.67637 -4.28018 11.4662 3.18805 -4.69617 55.4148 -6.79888 -4.06523 84.8332 70.0122 -2.40664 -3.18319e-006 -5.45104e-006 1.46846e-005 11.9983 65.5279 -10.8076 2.05162e-006 -1.28074e-006 -3.0075 8.0307 -4.95128 0.697728 -72.0836 -5.63272 4.19902 -99.1452 17.671 -14.5471 -1.54755e-005 -3.58696e-006 1.00106e-005 -7.01289 4.64777 1.09869 1.46876e-005 3.15638e-007 3.00002 -8.03056 -4.95137 -0.69776 -175.565 -1.46827 -2.58139 180 7.01526e-015 178.837 177.333 10.1675 179.837 -1.71648e-006 -7.82038e-006 0.195054 -21.2447 70.9743 22.3837 8.14349 25.2322 -3.49073 -174.568 4.31694 -0.47495 4.54188e-006 -4.6773e-006 -1.08609 -2.8227 -12.5369 0.11363 4.38424e-006 8.37379e-006 -0.128434 17.0524 65.8668 -17.9129 -8.15845 25.6072 2.96828 
49.9799 94.238 18.7102 -0.45995 -2.19593 79.33 -0.0671466 -1.48558 0.265809 -0.129948 1.03137 0.538476 -0.136491 2.67642 0.54091 -9.65254 -3.66661 -4.24063 11.5225 3.20207 -4.66352 55.4116 -6.78771 -4.05816 85.5524 69.784 -3.28665 -3.18319e-006 -5.45104e-006 1.46846e-005 12.0197 65.4969 -10.8004 2.05162e-006 -1.28074e-006 -3.00752 8.0307 -4.95128 0.697728 -72.123 -5.63906 4.20409 -99.1578 17.5899 -14.6051 -1.54755e-005 -3.58696e-006 1.00106e-005 -6.98571 4.60497 1.09455 1.46876e-005 3.15638e-007 3.00002 -8.03056 -4.95137 -0.69776 -175.581 -1.45481 -2.57315 180 7.01526e-015 178.837 177.333 10.1815 179.837 -1.71648e-006 -7.82038e-006 0.195316 -21.2457 70.9751 22.3848 8.14349 25.2322 -3.49073 -174.576 4.29619 -0.476378 4.54188e-006 -4.6773e-006 -1.08619 -2.83226 -12.5239 0.112419 4.38424e-006 8.37379e-006 -0.128372 17.0513 65.8651 -17.9118 -8.15807 25.6012 2.97644 
49.9911 94.2472 18.7039 -0.460956 -2.19476 79.2529 -0.0636901 -1.48485 0.265393 -0.123052 1.03284 0.537295 -0.129576 2.67789 0.539612 -9.69281 -3.64598 -4.2016 11.5511 3.20657 -4.62872 55.4448 -6.76889 -4.04776 86.1806 69.5468 -4.09879 -3.18319e-006 -5.45104e-006 1.46846e-005 12.0438 65.4633 -10.7938 2.05162e-006 -1.28074e-006 -3.00754 8.0307 -4.95128 0.697728 -72.1379 -5.64614 4.20828 -99.1917 17.5061 -14.6584 -1.54755e-005 -3.58696e-006 1.00106e-005 -6.95579 4.56327 1.09048 1.46876e-005 3.15638e-007 3.00002 -8.03056 -4.95137 -0.69776 -175.595 -1.44418 -2.56699 180 7.01526e-015 178.837 177.333 10.1904 179.837 -1.71648e-006 -7.82038e-006 0.195575 -21.2449 70.9743 22.3839 8.14349 25.2322 -3.49073 -174.58 4.27863 -0.479885 4.54188e-006 -4.6773e-006 -1.0863 -2.84215 -12.5161 0.111181 4.38424e-006 8.37379e-006 -0.128358 17.0517 65.8655 -17.9124 -8.15768 25.595 2.98497 
